<svg xmlns="http://www.w3.org/2000/svg" width="1440" height="1050" viewBox="0 0 1440 1050"><title>08-reports</title><rect x="0" y="0" width="1440" height="1050" rx="0" fill="#F7F8FA" stroke="none"/><rect x="0" y="0" width="224" height="1050" rx="0" fill="#111827" stroke="none"/><rect x="224" y="0" width="1216" height="72" rx="0" fill="#FFFFFF" stroke="none"/><rect x="24" y="24" width="32" height="32" rx="8" fill="#4F46E5" stroke="none"/><text x="34" y="46" font-family="Inter, Arial, sans-serif" font-size="20" fill="#FFFFFF" font-weight="700">S</text><text x="66" y="47" font-family="Inter, Arial, sans-serif" font-size="22" fill="#FFFFFF" font-weight="700">SalesFlow</text><text x="24" y="108" font-family="Inter, Arial, sans-serif" font-size="10" fill="#94A3B8" font-weight="600">NORTHLINE WORKSPACE</text><text x="30" y="154" font-family="Inter, Arial, sans-serif" font-size="17" fill="#94A3B8" font-weight="400">◈</text><text x="60" y="154" font-family="Inter, Arial, sans-serif" font-size="13" fill="#CBD5E1" font-weight="400">Dashboard</text><text x="30" y="202" font-family="Inter, Arial, sans-serif" font-size="17" fill="#94A3B8" font-weight="400">○</text><text x="60" y="202" font-family="Inter, Arial, sans-serif" font-size="13" fill="#CBD5E1" font-weight="400">Contacts</text><text x="30" y="250" font-family="Inter, Arial, sans-serif" font-size="17" fill="#94A3B8" font-weight="400">▤</text><text x="60" y="250" font-family="Inter, Arial, sans-serif" font-size="13" fill="#CBD5E1" font-weight="400">Companies</text><text x="30" y="298" font-family="Inter, Arial, sans-serif" font-size="17" fill="#94A3B8" font-weight="400">▥</text><text x="60" y="298" font-family="Inter, Arial, sans-serif" font-size="13" fill="#CBD5E1" font-weight="400">Pipeline</text><text x="30" y="346" font-family="Inter, Arial, sans-serif" font-size="17" fill="#94A3B8" font-weight="400">✓</text><text x="60" y="346" font-family="Inter, Arial, sans-serif" font-size="13" fill="#CBD5E1" font-weight="400">Tasks</text><rect x="12" y="368" width="200" height="42" rx="8" fill="#283044" stroke="none"/><text x="30" y="394" font-family="Inter, Arial, sans-serif" font-size="17" fill="#A5B4FC" font-weight="400">▥</text><text x="60" y="394" font-family="Inter, Arial, sans-serif" font-size="13" fill="#FFFFFF" font-weight="600">Reports</text><text x="30" y="442" font-family="Inter, Arial, sans-serif" font-size="17" fill="#94A3B8" font-weight="400">◷</text><text x="60" y="442" font-family="Inter, Arial, sans-serif" font-size="13" fill="#CBD5E1" font-weight="400">Activity</text><text x="30" y="490" font-family="Inter, Arial, sans-serif" font-size="17" fill="#94A3B8" font-weight="400">⚙</text><text x="60" y="490" font-family="Inter, Arial, sans-serif" font-size="13" fill="#CBD5E1" font-weight="400">Team &amp; settings</text><rect x="16" y="958" width="192" height="70" rx="10" fill="#1E293B" stroke="none"/><text x="30" y="984" font-family="Inter, Arial, sans-serif" font-size="13" fill="#C7D2FE" font-weight="700">MC</text><text x="65" y="984" font-family="Inter, Arial, sans-serif" font-size="13" fill="#FFFFFF" font-weight="600">Maya Chen</text><text x="65" y="1004" font-family="Inter, Arial, sans-serif" font-size="11" fill="#94A3B8" font-weight="400">Sales Manager</text><text x="256" y="43" font-family="Inter, Arial, sans-serif" font-size="13" fill="#64748B" font-weight="400">Workspace / Reports</text><rect x="1130" y="24" width="104" height="24" rx="6" fill="#ECFDF5" stroke="none"/><text x="1140" y="40" font-family="Inter, Arial, sans-serif" font-size="11" fill="#059669" font-weight="600">Live updates</text><text x="1327" y="46" font-family="Inter, Arial, sans-serif" font-size="14" fill="#4F46E5" font-weight="700">MC</text><text x="256" y="127" font-family="Inter, Arial, sans-serif" font-size="30" fill="#172033" font-weight="700">Reports</text><text x="256" y="154" font-family="Inter, Arial, sans-serif" font-size="14" fill="#64748B" font-weight="400">Real workspace data. Useful sales signals.</text><rect x="256" y="194" width="276" height="124" rx="12" fill="#FFFFFF" stroke="#E2E8F0"/><text x="276" y="229" font-family="Inter, Arial, sans-serif" font-size="12" fill="#64748B" font-weight="400">Open pipeline</text><text x="276" y="276" font-family="Inter, Arial, sans-serif" font-size="32" fill="#172033" font-weight="700">$84,500</text><rect x="548" y="194" width="276" height="124" rx="12" fill="#FFFFFF" stroke="#E2E8F0"/><text x="568" y="229" font-family="Inter, Arial, sans-serif" font-size="12" fill="#64748B" font-weight="400">Won revenue</text><text x="568" y="276" font-family="Inter, Arial, sans-serif" font-size="32" fill="#172033" font-weight="700">$22,500</text><rect x="840" y="194" width="276" height="124" rx="12" fill="#FFFFFF" stroke="#E2E8F0"/><text x="860" y="229" font-family="Inter, Arial, sans-serif" font-size="12" fill="#64748B" font-weight="400">Closed-deal conversion</text><text x="860" y="276" font-family="Inter, Arial, sans-serif" font-size="32" fill="#172033" font-weight="700">67%</text><rect x="1132" y="194" width="276" height="124" rx="12" fill="#FFFFFF" stroke="#E2E8F0"/><text x="1152" y="229" font-family="Inter, Arial, sans-serif" font-size="12" fill="#64748B" font-weight="400">Won / Lost</text><text x="1152" y="276" font-family="Inter, Arial, sans-serif" font-size="32" fill="#172033" font-weight="700">4 / 2</text><rect x="256" y="344" width="664" height="520" rx="12" fill="#FFFFFF" stroke="#E2E8F0"/><text x="280" y="383" font-family="Inter, Arial, sans-serif" font-size="17" fill="#172033" font-weight="600">Pipeline by stage</text><text x="280" y="407" font-family="Inter, Arial, sans-serif" font-size="12" fill="#64748B" font-weight="400">Open and closed opportunity values</text><text x="280" y="447" font-family="Inter, Arial, sans-serif" font-size="13" fill="#172033" font-weight="400">New</text><rect x="400" y="432" width="290" height="14" rx="7" fill="#EEF2F6" stroke="none"/><rect x="400" y="432" width="210" height="14" rx="7" fill="#4F46E5" stroke="none"/><text x="713" y="447" font-family="Inter, Arial, sans-serif" font-size="13" fill="#64748B" font-weight="400">$21,000</text><text x="280" y="508" font-family="Inter, Arial, sans-serif" font-size="13" fill="#172033" font-weight="400">Qualified</text><rect x="400" y="493" width="290" height="14" rx="7" fill="#EEF2F6" stroke="none"/><rect x="400" y="493" width="185" height="14" rx="7" fill="#4F46E5" stroke="none"/><text x="713" y="508" font-family="Inter, Arial, sans-serif" font-size="13" fill="#64748B" font-weight="400">$18,500</text><text x="280" y="569" font-family="Inter, Arial, sans-serif" font-size="13" fill="#172033" font-weight="400">Proposal</text><rect x="400" y="554" width="290" height="14" rx="7" fill="#EEF2F6" stroke="none"/><rect x="400" y="554" width="215" height="14" rx="7" fill="#4F46E5" stroke="none"/><text x="713" y="569" font-family="Inter, Arial, sans-serif" font-size="13" fill="#64748B" font-weight="400">$21,500</text><text x="280" y="630" font-family="Inter, Arial, sans-serif" font-size="13" fill="#172033" font-weight="400">Negotiation</text><rect x="400" y="615" width="290" height="14" rx="7" fill="#EEF2F6" stroke="none"/><rect x="400" y="615" width="235" height="14" rx="7" fill="#4F46E5" stroke="none"/><text x="713" y="630" font-family="Inter, Arial, sans-serif" font-size="13" fill="#64748B" font-weight="400">$23,500</text><text x="280" y="691" font-family="Inter, Arial, sans-serif" font-size="13" fill="#172033" font-weight="400">Won</text><rect x="400" y="676" width="290" height="14" rx="7" fill="#EEF2F6" stroke="none"/><rect x="400" y="676" width="225" height="14" rx="7" fill="#059669" stroke="none"/><text x="713" y="691" font-family="Inter, Arial, sans-serif" font-size="13" fill="#64748B" font-weight="400">$22,500</text><text x="280" y="752" font-family="Inter, Arial, sans-serif" font-size="13" fill="#172033" font-weight="400">Lost</text><rect x="400" y="737" width="290" height="14" rx="7" fill="#EEF2F6" stroke="none"/><rect x="400" y="737" width="110" height="14" rx="7" fill="#4F46E5" stroke="none"/><text x="713" y="752" font-family="Inter, Arial, sans-serif" font-size="13" fill="#64748B" font-weight="400">$11,000</text><rect x="944" y="344" width="464" height="520" rx="12" fill="#FFFFFF" stroke="#E2E8F0"/><text x="968" y="383" font-family="Inter, Arial, sans-serif" font-size="17" fill="#172033" font-weight="600">Sales by owner</text><text x="968" y="407" font-family="Inter, Arial, sans-serif" font-size="12" fill="#64748B" font-weight="400">Won revenue, not speculative forecasts</text><text x="968" y="463" font-family="Inter, Arial, sans-serif" font-size="15" fill="#172033" font-weight="600">Maya Chen</text><text x="1210" y="463" font-family="Inter, Arial, sans-serif" font-size="24" fill="#172033" font-weight="600">$13,000</text><path d="M968 491h416" stroke="#E2E8F0"/><text x="968" y="540" font-family="Inter, Arial, sans-serif" font-size="15" fill="#172033" font-weight="600">Alex Morgan</text><text x="1210" y="540" font-family="Inter, Arial, sans-serif" font-size="24" fill="#172033" font-weight="600">$9,500</text><text x="968" y="651" font-family="Inter, Arial, sans-serif" font-size="13" fill="#64748B" font-weight="400">Conversion = Won / (Won + Lost)</text><text x="968" y="680" font-family="Inter, Arial, sans-serif" font-size="12" fill="#64748B" font-weight="400">Open deals are excluded from the denominator.</text><text x="968" y="751" font-family="Inter, Arial, sans-serif" font-size="12" fill="#64748B" font-weight="400">Metrics update after committed CRM changes.</text></svg>